<?xml version="1.0" encoding="UTF-8"?>
<svg id="uuid-257faf6c-289d-431c-bc8a-521106890a3b" data-name="0/brush" xmlns="http://www.w3.org/2000/svg" viewBox="0 0 256 256">
  <defs>
    <style>
      .uuid-ef6bfbdf-825d-456a-b1f0-6ab97d9574cc {
        fill: #fff;
        stroke-width: 0px;
      }
    </style>
  </defs>
  <path class="uuid-ef6bfbdf-825d-456a-b1f0-6ab97d9574cc" d="m201.96,142.77c-17.01-17.01-42.52-19.51-59.15-6.54.81,3.61,2.11,7.06,3.89,10.27-3.48-1.37-7.18-2.35-11.04-2.92-12.31,16.63-9.64,41.63,7.11,58.38,18.25,18.25,46.3,19.8,62.65,3.46,16.34-16.34,14.8-44.39-3.46-62.65Z"/>
  <path class="uuid-ef6bfbdf-825d-456a-b1f0-6ab97d9574cc" d="m205.42,50.58c-16.34-16.34-44.39-14.8-62.65,3.46-16.75,16.75-19.42,41.75-7.11,58.39,3.86-.57,7.56-1.56,11.03-2.92-1.77,3.21-3.07,6.66-3.88,10.27,16.62,12.97,42.14,10.47,59.15-6.54,18.25-18.25,19.8-46.3,3.46-62.65Z"/>
  <path class="uuid-ef6bfbdf-825d-456a-b1f0-6ab97d9574cc" d="m127.39,87.37c-22.78,0-41.24,18.46-41.24,41.24s18.46,41.24,41.24,41.24,41.24-18.46,41.24-41.24-18.46-41.24-41.24-41.24Zm.61,55.64c-6.65,0-12.97,1.24-18.7,3.49,3.08-5.58,4.81-11.86,4.81-18.5s-1.73-12.92-4.8-18.5c5.72,2.25,12.05,3.49,18.69,3.49s12.97-1.24,18.69-3.49c-3.07,5.58-4.8,11.86-4.8,18.5s1.73,12.92,4.81,18.5c-5.73-2.25-12.05-3.49-18.7-3.49Z"/>
  <path class="uuid-ef6bfbdf-825d-456a-b1f0-6ab97d9574cc" d="m109.31,109.5c3.47,1.37,7.17,2.35,11.03,2.92,12.31-16.63,9.64-41.63-7.11-58.39-18.25-18.25-46.3-19.8-62.65-3.46-16.34,16.34-14.8,44.39,3.46,62.65,17.01,17.01,42.52,19.5,59.15,6.54-.8-3.61-2.11-7.06-3.88-10.27Z"/>
  <path class="uuid-ef6bfbdf-825d-456a-b1f0-6ab97d9574cc" d="m109.3,146.5c1.77-3.21,3.08-6.66,3.89-10.27-16.62-12.97-42.14-10.47-59.15,6.54-18.25,18.25-19.8,46.3-3.46,62.65,16.34,16.34,44.39,14.8,62.65-3.46,16.75-16.75,19.42-41.75,7.11-58.38-3.86.57-7.56,1.56-11.04,2.92Z"/>
</svg>